<?xml version="1.0" encoding="UTF-8"?>
<!-- Generator: Adobe Illustrator 26.5.0, SVG Export Plug-In . SVG Version: 6.00 Build 0)  -->
<svg xmlns="http://www.w3.org/2000/svg" xmlns:xlink="http://www.w3.org/1999/xlink" version="1.1" id="Capa_1" x="0px" y="0px" viewBox="0 0 512.002 512.002" style="enable-background:new 0 0 512.002 512.002;" xml:space="preserve" width="512" height="512">
<g id="Banners">
	<g>
		<path style="fill:#33CCCC;" d="M310.796,188.532c-1.307,0-2.62-0.232-3.878-0.707l-50.88-19.173l-49.871,19.148    c-3.479,1.334-7.395,0.819-10.409-1.37c-3.014-2.189-4.714-5.755-4.52-9.476l2.799-53.31l-33.599-41.483    c-2.345-2.895-3.064-6.78-1.914-10.322c1.151-3.543,4.018-6.263,7.616-7.227l51.507-13.797L246.72,5.099    c2.004-3.15,5.469-5.07,9.202-5.097c3.752-0.061,7.227,1.841,9.275,4.962l30.087,45.828l51.596,13.821    c3.599,0.964,6.465,3.684,7.616,7.227c1.15,3.542,0.431,7.427-1.914,10.322l-33.599,41.483l2.799,53.31    c0.194,3.708-1.495,7.264-4.492,9.456C315.378,187.809,313.098,188.532,310.796,188.532z M256.002,145.884    c1.314,0,2.629,0.235,3.879,0.707l39.049,14.715l-2.138-40.724c-0.142-2.715,0.726-5.387,2.438-7.5l25.594-31.601l-39.279-10.521    c-2.608-0.699-4.868-2.332-6.35-4.588L256.15,31.269l-22.236,34.967c-1.479,2.325-3.775,4.01-6.436,4.723l-39.28,10.521    l25.594,31.601c1.711,2.113,2.579,4.785,2.438,7.5l-2.132,40.609l37.963-14.576C253.329,146.127,254.665,145.884,256.002,145.884z     M224.631,60.334h0.01H224.631z"/>
	</g>
	<g>
		<path style="fill:#33CCCC;" d="M443.96,256.613c-3.243,0-6.357-1.436-8.466-3.978l-25.014-30.157l-39.101-2.51    c-3.876-0.249-7.333-2.523-9.096-5.984c-1.764-3.46-1.571-7.594,0.506-10.876L383.742,170l-9.695-37.962    c-0.961-3.763,0.134-7.754,2.88-10.5c2.747-2.746,6.743-3.84,10.5-2.879l37.963,9.695l33.109-20.952    c3.28-2.076,7.416-2.269,10.876-0.505s5.734,5.22,5.983,9.096l2.51,39.1l30.157,25.013c2.989,2.479,4.449,6.352,3.842,10.188    c-0.607,3.836-3.192,7.067-6.802,8.501l-36.411,14.471l-14.47,36.411c-1.435,3.609-4.666,6.194-8.502,6.802    C445.108,256.569,444.532,256.613,443.96,256.613z M391.297,199.201l25.327,1.626c3.021,0.194,5.829,1.625,7.762,3.955    l16.202,19.534l9.372-23.584c1.118-2.813,3.347-5.042,6.16-6.16l23.585-9.373l-19.534-16.202c-2.33-1.933-3.761-4.741-3.955-7.762    l-1.625-25.326l-21.446,13.571c-2.559,1.62-5.671,2.111-8.604,1.362l-24.59-6.28l6.28,24.589c0.749,2.934,0.256,6.046-1.363,8.604    L391.297,199.201z"/>
	</g>
	<g>
		<path style="fill:#33CCCC;" d="M69.061,256.613c-0.571,0-1.147-0.044-1.722-0.135c-3.836-0.608-7.067-3.193-8.502-6.802    l-14.449-36.36L7.026,198.828c-3.663-1.42-6.291-4.687-6.894-8.568c-0.603-3.882,0.911-7.792,3.972-10.255l31.057-25.007    l2.503-39.005c0.249-3.876,2.523-7.333,5.983-9.096c3.462-1.764,7.595-1.571,10.876,0.505l33.109,20.952l37.963-9.695    c3.761-0.962,7.753,0.133,10.5,2.879c2.746,2.747,3.841,6.737,2.88,10.5L129.28,170l20.951,33.108    c2.077,3.282,2.27,7.416,0.506,10.876c-1.763,3.46-5.22,5.735-9.096,5.984l-39.101,2.51l-25.014,30.157    C75.418,255.177,72.304,256.613,69.061,256.613z M32.73,185.199l24.085,9.339c2.853,1.106,5.116,3.35,6.246,6.193l9.372,23.584    l16.202-19.534c1.933-2.331,4.74-3.761,7.762-3.955l25.327-1.626l-13.571-21.445c-1.619-2.559-2.112-5.671-1.363-8.604    l6.28-24.589l-24.59,6.28c-2.933,0.75-6.045,0.256-8.604-1.362L58.43,135.909l-1.625,25.326c-0.197,3.077-1.678,5.93-4.079,7.863    L32.73,185.199z"/>
	</g>
	<g>
		<path d="M508.782,428.531l-58.91-58.92c0.33-1.32,0.58-2.28,0.71-2.79l15.13-46.41c1.73-5.31-0.78-11.06-5.85-13.4l-6.53-3.02    c-61.12-28.2-129.18-43.11-196.82-43.11c-67.65,0-135.71,14.91-196.83,43.11l-6.53,3.02c-5.01,2.31-7.53,7.99-5.89,13.26    c0.05,0.16,5.07,16.22,9.32,28.99l5.87,17.59c0.13,0.51,0.36,1.44,0.69,2.7l-59.86,58.91c-2.9,2.86-3.99,7.09-2.82,10.99    c1.16,3.9,4.39,6.84,8.38,7.64l46.73,9.35l9.34,46.72c0.8,3.98,3.72,7.19,7.6,8.37c1.05,0.32,2.12,0.47,3.19,0.47    c2.87,0,5.68-1.13,7.77-3.22l32.35-32.35c10.84-10.84,16.31-24.83,15.39-39.4c-0.63-9.98-4.27-19.75-10.38-28.32    c87.78-28.16,183.76-28.14,271.51,0.05c-15.75,22.06-14.69,49.14,3.84,67.67l32.35,32.35c2.09,2.09,4.9,3.22,7.77,3.22    c1.07,0,2.14-0.15,3.19-0.47c3.88-1.18,6.8-4.39,7.6-8.37l9.34-46.72l46.73-9.35c3.97-0.8,7.19-3.72,8.37-7.6    C512.702,435.612,511.652,431.392,508.782,428.531z M100.272,460.872l-17.82,17.82l-6.75-33.76c-0.87-4.35-4.28-7.76-8.63-8.63    l-33.56-6.71l36.13-35.57c1.89,6.81,3.82,13.47,5.35,18.08c1.53,4.6,5.82,7.52,10.43,7.52c1.08,0,2.16-0.15,3.24-0.48    c2.97-0.92,6.2-1.94,9.67-3.05c6.51,6.45,10.42,14.37,10.92,22.33C109.782,446.712,106.672,454.471,100.272,460.872z     M71.172,322.932c117.9-53.63,252.68-53.64,370.59-0.04l-21.45,71.9c-4.83-1.56-10.13-3.3-15.84-5.21    c-95.42-31.96-200.52-31.96-295.94,0c-5.7,1.92-10.99,3.66-15.82,5.21C88.154,378.373,71.172,322.932,71.172,322.932z     M444.932,436.301c-4.35,0.87-7.76,4.28-8.63,8.63l-6.75,33.76l-17.82-17.82c-14.14-14.14-8.73-32.51,3.03-44.75    c3.43,1.09,6.64,2.1,9.6,3.01c5.71,1.76,11.78-1.36,13.67-7.03c1.52-4.57,3.43-11.16,5.3-17.91l35.36,35.36L444.932,436.301z"/>
	</g>
</g>















</svg>
