<?xml version="1.0" encoding="UTF-8"?>
<!-- Generator: Adobe Illustrator 26.0.3, SVG Export Plug-In . SVG Version: 6.00 Build 0)  -->
<svg xmlns="http://www.w3.org/2000/svg" xmlns:xlink="http://www.w3.org/1999/xlink" version="1.1" id="Capa_1" x="0px" y="0px" viewBox="0 0 512 512" style="enable-background:new 0 0 512 512;" xml:space="preserve" width="512" height="512">
<g>
	<g>
		<g>
			<g>
				<path d="M389.63,369.915c-25.253,0-45.798-20.398-45.798-45.47c2.511-60.321,89.093-60.304,91.595,0      C435.427,349.517,414.883,369.915,389.63,369.915z M389.63,300.974c-13.122,0-23.798,10.529-23.798,23.471      c1.303,31.134,46.297,31.126,47.595,0C413.427,311.503,402.752,300.974,389.63,300.974z"/>
			</g>
		</g>
		<g>
			<g>
				<path d="M96.472,369.915c-25.253,0-45.797-20.398-45.797-45.47c2.511-60.322,89.093-60.303,91.595,0      C142.27,349.517,121.725,369.915,96.472,369.915z M96.472,300.974c-13.122,0-23.797,10.529-23.797,23.471      c1.303,31.135,46.297,31.125,47.595,0C120.27,311.503,109.594,300.974,96.472,300.974z"/>
			</g>
		</g>
	</g>
	<path style="fill:#33CACA;" d="M344.675,315.788H141.427c1.444,7.147,0.999,15.141-1.173,22h205.594   C343.676,330.929,343.231,322.934,344.675,315.788z"/>
	<path d="M34.507,217.193h9.079c28.921-34.69,72.336-54.238,118.283-53.065v53.065h22v-53.065h61.118   c47.831,0,82.888,32.432,100.352,53.065h21.885c0.606,0,1.211,0.05,1.81,0.15l4.76,0.794   c-26.501-40.157-78.645-77.516-128.807-76.007c0.001-0.001-87.393-0.001-87.393-0.001c-57.878-0.393-114.376,30.848-144.814,80.078   l-6.409,9.555C12.629,222.955,22.905,217.193,34.507,217.193z"/>
	<g>
		<path d="M497.944,287.254h-24.131c-6.075,0-11-4.925-11-11s4.925-11,11-11h24.131C512.529,265.83,512.537,286.674,497.944,287.254    z"/>
	</g>
	<path style="fill:#33CACA;" d="M465.987,233.511l-96.953-16.168c-1.026-0.511-333.15,0.053-334.529-0.15   C15.479,217.193,0,232.673,0,251.7v75.087c0,6.075,4.925,11,11,11h41.69c-2.171-6.859-2.617-14.853-1.173-22H22V251.7   c0-6.896,5.61-12.507,12.507-12.507h331.808c0.319,0.049,96.227,16.056,96.521,16.092c7.493,1.026,14.087,4.692,18.905,9.969   h16.204c14.592,0.579,14.587,21.423,0,22c0,0-7.944,0-7.944,0v28.534h-55.416c1.444,7.147,0.999,15.141-1.173,22H501   c6.075,0,11-4.925,11-11V286.42C512,259.904,492.23,237.188,465.987,233.511z"/>
</g>















</svg>
