<?xml version="1.0" encoding="UTF-8"?>
<!-- Generator: Adobe Illustrator 24.2.3, SVG Export Plug-In . SVG Version: 6.00 Build 0)  -->
<svg xmlns="http://www.w3.org/2000/svg" xmlns:xlink="http://www.w3.org/1999/xlink" version="1.1" id="Capa_1" x="0px" y="0px" viewBox="0 0 511.382 511.382" style="enable-background:new 0 0 511.382 511.382;" xml:space="preserve" width="512" height="512">
<g>
	<g>
		<path style="fill:#33CCCC;" d="M224.095,366.873c-22.882,0-41.498,18.615-41.498,41.497c2.28,55.053,80.725,55.037,82.996,0    C265.593,385.488,246.976,366.873,224.095,366.873z M224.095,427.868c-10.751,0-19.498-8.747-19.498-19.498    c1.071-25.866,37.929-25.858,38.996,0C243.593,419.121,234.846,427.868,224.095,427.868z"/>
		<path style="fill:#33CCCC;" d="M112.269,183.884c-22.882,0-41.498,18.616-41.498,41.498c2.28,55.052,80.724,55.037,82.995,0    C153.767,202.501,135.151,183.884,112.269,183.884z M112.269,244.88c-10.751,0-19.498-8.747-19.498-19.498    c1.071-25.866,37.928-25.86,38.995,0C131.767,236.133,123.02,244.88,112.269,244.88z"/>
		<path style="fill:#33CCCC;" d="M289.167,223.339c-19.461-19.461-53.604-19.461-73.064,0c-4.868,4.868-12.153,15.405-19.183,50.549    c-3.646,18.229-5.462,34.408-5.537,35.088c-0.369,3.321,0.792,6.63,3.154,8.993c2.359,2.367,5.701,3.525,8.993,3.154    c21.607-2.081,75.579-11.808,85.636-24.721C308.628,276.943,308.628,242.8,289.167,223.339z M273.61,280.847    c-6.068,6.069-32.738,12.696-58.524,16.573c3.877-25.786,10.504-52.456,16.573-58.524c5.087-5.087,13.125-8.087,21.325-8.087    C280.75,230.532,290.067,263.246,273.61,280.847z"/>
	</g>
	<g>
		<path d="M122.435,305.877c-22.882,0-41.498,18.616-41.498,41.498c2.28,55.052,80.724,55.037,82.995,0    C163.933,324.493,145.317,305.877,122.435,305.877z M122.435,366.873c-10.751,0-19.498-8.747-19.498-19.498    c1.071-25.866,37.928-25.86,38.995,0C141.933,358.126,133.186,366.873,122.435,366.873z"/>
		<path d="M152.933,72.059c-22.882,0-41.497,18.616-41.497,41.498c2.279,55.052,80.724,55.035,82.995,0    C194.431,90.675,175.814,72.059,152.933,72.059z M152.933,133.054c-10.751,0-19.497-8.746-19.497-19.497    c1.071-25.867,37.928-25.859,38.995,0C172.431,124.308,163.684,133.054,152.933,133.054z"/>
		<path d="M504.82,7.686c-33.524-29.823-122.864,50.56-157.165,84.112c-27.528,27.222-52.167,56.582-68.847,81.681    c-20.635-12.68-33.548-35.301-33.548-59.922V52.561c0-28.487-23.177-51.664-51.664-51.664    c-52.424,0-101.502,26.941-138.191,75.861c-73.87,94.393-73.878,263.853,0.002,358.244    C128.38,535.633,258.815,535.658,331.789,435c35.981-47.972,55.796-111.585,55.796-179.12c0-16.945-5.93-33.083-16.552-45.892    C410.256,180.304,542.076,48.72,504.82,7.686z M347.861,200.252c-0.081,0.062-0.163,0.123-0.243,0.188    c-19.125,14.712-36.883,25.946-51.227,32.208c3.819,6.385,6.151,13.562,6.996,20.92c14.519-6.124,31.745-16.513,50.238-30.122    c7.674,8.984,11.959,20.422,11.959,32.434c-9.638,309.128-334.337,309.14-343.976-0.002c0-128.466,77.154-232.982,171.988-232.982    c16.356,0,29.664,13.308,29.664,29.664v60.996c0,32.323,16.948,62.018,44.03,78.662c-3.318,5.947-6.115,11.602-8.349,16.899    c7.357,0.846,14.532,3.177,20.917,6.996c2.876-6.587,6.798-13.891,11.625-21.718c0.297-0.406,0.564-0.839,0.807-1.292    c9.926-15.888,23.482-33.843,39.495-52.255c20.385,3.693,36.18,19.488,39.873,39.873    C363.593,187.735,355.616,194.278,347.861,200.252z M406.83,147.582c-5.536,5.656-11.192,11.177-16.978,16.625    c-7.222-19.207-22.347-34.332-41.554-41.554c8.571-9.105,16.783-17.31,26.009-25.973c20.954,4.319,37.198,20.563,41.518,41.518    C412.655,141.573,409.703,144.649,406.83,147.582z M472.677,66.417c-10.11,16.398-23.781,34.556-39.827,53.048    c-7.443-17.679-22.129-32.365-39.808-39.808c22.196-20.462,79.066-61.287,96.209-56.401    C490.296,25.259,490.396,37.676,472.677,66.417z"/>
	</g>
</g>















</svg>
