<?xml version="1.0" encoding="iso-8859-1"?>
<!-- Generator: Adobe Illustrator 29.2.1, SVG Export Plug-In . SVG Version: 9.03 Build 55982)  -->
<svg version="1.1" id="Capa_1" xmlns="http://www.w3.org/2000/svg" xmlns:xlink="http://www.w3.org/1999/xlink" x="0px" y="0px"
	 viewBox="0 0 512 512" style="enable-background:new 0 0 512 512;" xml:space="preserve">
<g>
	<g>
		<path style="fill:#33CCCC;" d="M418.632,512H205.25c-6.075,0-11-4.925-11-11v-60.503l-10-12.985l10-9.015v-58.75
			c0-32.395-26.354-58.75-58.749-58.75v-22c44.525,0,80.749,36.224,80.749,80.75V490h191.381V359.747
			c0-32.395-26.355-58.75-58.75-58.75v-22c44.525,0,80.75,36.224,80.75,80.75v58.75l10,11.296l-10,10.704V501
			C429.632,507.075,424.707,512,418.632,512z"/>
	</g>
	<g>
		<path d="M80.75,392.747c18.196,0,33-14.804,33-33s-14.804-33-33-33s-33,14.804-33,33S62.553,392.747,80.75,392.747z
			 M80.75,348.747c6.065,0,11,4.935,11,11s-4.935,11-11,11s-11-4.935-11-11S74.684,348.747,80.75,348.747z"/>
		<path d="M80.75,47.75c-18.196,0-33,14.804-33,33s14.804,33,33,33s33-14.804,33-33S98.946,47.75,80.75,47.75z M80.75,91.75
			c-6.065,0-11-4.935-11-11s4.935-11,11-11s11,4.935,11,11S86.815,91.75,80.75,91.75z"/>
		<path d="M80.75,187.249c-18.196,0-33,14.804-33,33s14.804,33,33,33s33-14.804,33-33S98.946,187.249,80.75,187.249z M80.75,231.249
			c-6.065,0-11-4.935-11-11s4.935-11,11-11s11,4.935,11,11S86.815,231.249,80.75,231.249z"/>
		<path d="M512,220.249c0-29.725-16.156-55.732-40.137-69.75C495.844,136.482,512,110.475,512,80.75C512,36.224,475.776,0,431.251,0
			H80.75C36.224,0,0,36.224,0,80.75c0,29.725,16.157,55.732,40.138,69.75C16.157,164.516,0,190.523,0,220.249
			s16.156,55.732,40.138,69.749C16.156,304.015,0,330.022,0,359.747c0,44.525,36.224,80.75,80.75,80.75H194.25v-22h-58.189
			c15.643-14.736,25.437-35.614,25.437-58.75s-9.795-44.014-25.437-58.75h295.189c32.395,0,58.749,26.355,58.749,58.75
			s-26.354,58.75-58.749,58.75h-1.619v22h1.619c44.525,0,80.749-36.224,80.749-80.75c0-29.725-16.156-55.732-40.137-69.75
			C495.844,275.98,512,249.974,512,220.249z M431.251,22C463.646,22,490,48.355,490,80.75s-26.354,58.75-58.749,58.75H136.062
			c15.643-14.736,25.437-35.614,25.437-58.75S151.704,36.736,136.062,22H431.251z M22,80.75C22,48.355,48.355,22,80.75,22
			s58.75,26.355,58.75,58.75s-26.355,58.75-58.75,58.75S22,113.144,22,80.75z M22,220.249c0-32.395,26.355-58.75,58.75-58.75
			s58.75,26.355,58.75,58.75s-26.355,58.749-58.75,58.749S22,252.643,22,220.249z M139.499,359.747
			c0,32.395-26.355,58.75-58.75,58.75S22,392.142,22,359.747s26.355-58.75,58.75-58.75S139.499,327.353,139.499,359.747z
			 M431.251,278.998H136.062c15.642-14.736,25.437-35.614,25.437-58.749c0-23.135-9.795-44.014-25.437-58.75h295.189
			c32.395,0,58.749,26.355,58.749,58.75S463.646,278.998,431.251,278.998z"/>
	</g>
</g>
<g>
</g>
<g>
</g>
<g>
</g>
<g>
</g>
<g>
</g>
<g>
</g>
<g>
</g>
<g>
</g>
<g>
</g>
<g>
</g>
<g>
</g>
<g>
</g>
<g>
</g>
<g>
</g>
<g>
</g>
</svg>
