<?xml version="1.0" encoding="iso-8859-1"?>
<!-- Generator: Adobe Illustrator 27.2.0, SVG Export Plug-In . SVG Version: 6.00 Build 0)  -->
<svg version="1.1" id="Capa_1" xmlns="http://www.w3.org/2000/svg" xmlns:xlink="http://www.w3.org/1999/xlink" x="0px" y="0px"
	 viewBox="0 0 512.022 512.022" style="enable-background:new 0 0 512.022 512.022;" xml:space="preserve">
<g>
	<path style="fill:#33CCCC;" d="M501.011,306.272h-111.5v-69.875h111.5c6.075,0,11-4.925,11-11c0-6.075-4.925-11-11-11h-111.5
		v-38.735c0,0,58.839-73.549,58.839-73.549c3.096-3.87,3.222-9.333,0.307-13.341c0,0-61.25-84.219-61.25-84.219
		c-4.154-5.974-13.636-5.991-17.792,0c0,0-61.25,84.218-61.25,84.218c-2.915,4.008-2.789,9.471,0.307,13.341
		c0,0,58.839,73.549,58.839,73.549v38.735c-55.582,0-167.431,0-222.999,0v-38.736l58.839-73.549
		c3.096-3.87,3.222-9.333,0.307-13.341c0,0-61.25-84.219-61.25-84.219c-4.154-5.974-13.636-5.991-17.792,0
		c0,0-61.25,84.218-61.25,84.218c-2.916,4.008-2.79,9.471,0.307,13.341l58.84,73.55v38.735h-111.5c-6.075,0-11,4.925-11,11
		c0,6.075,4.925,11,11,11h111.5v69.875h-111.5c-6.075,0-11,4.925-11,11s4.925,11,11,11h111.5v172.75c0,6.075,4.925,11,11,11
		c6.075,0,11-4.925,11-11v-172.75c55.582,0,167.431,0,222.999,0v50.25c0,6.075,4.925,11,11,11s11-4.925,11-11v-50.25
		c0,0,111.5,0,111.5,0C515.594,327.697,515.605,306.852,501.011,306.272z M378.511,29.724l47.418,65.199l-47.418,59.272
		l-47.418-59.272L378.511,29.724z M133.511,29.724l47.417,65.199l-47.417,59.272L86.093,94.923L133.511,29.724z M256.011,306.272
		H144.511v-69.875c55.582,0,167.431,0,222.999,0v69.875H256.011z"/>
	<path d="M501.01,0.023c-122.178,0.125-367.863-0.09-489.999,0c-6.075,0-10.999,4.925-10.999,11c0,0,0,489.998,0,489.998
		c0,6.075,4.925,11,11,11c0,0,244.999,0,244.999,0c6.075,0,11-4.925,11-11c0,0,0-50.253,0-50.253h188.241
		c31.297,0,56.758-25.461,56.758-56.758V11.023C512.01,4.948,507.085,0.023,501.01,0.023z M410.429,428.767
		c-0.001,0.003-154.436-0.002-154.447,0c0,0-15.468,0-15.468,0c-20.768,0.155-37.278-18.689-34.472-39.245h192.634
		C397.459,403.808,402.077,418.156,410.429,428.767z M245.011,490.021H22.012V22.023h222.999v345.5h-47.56
		c-4.725-0.039-9.161,3.238-10.515,7.765c-13.607,38.608,17.439,78.286,58.075,75.48V490.021z M455.252,428.767
		c-23.598,0.433-41.04-24.502-32.718-46.507c2.686-6.882-2.961-14.925-10.346-14.738H267.011v-345.5H490.01v371.987
		C490.01,413.175,474.418,428.767,455.252,428.767z"/>
</g>
<g>
</g>
<g>
</g>
<g>
</g>
<g>
</g>
<g>
</g>
<g>
</g>
<g>
</g>
<g>
</g>
<g>
</g>
<g>
</g>
<g>
</g>
<g>
</g>
<g>
</g>
<g>
</g>
<g>
</g>
</svg>
