<?xml version="1.0" encoding="iso-8859-1"?>
<!-- Generator: Adobe Illustrator 26.5.3, SVG Export Plug-In . SVG Version: 6.00 Build 0)  -->
<svg version="1.1" id="Capa_1" xmlns="http://www.w3.org/2000/svg" xmlns:xlink="http://www.w3.org/1999/xlink" x="0px" y="0px"
	 viewBox="0 0 512 512" style="enable-background:new 0 0 512 512;" xml:space="preserve">
<g>
	<g>
		<path style="fill:#33CCCC;" d="M166.478,157.541c-5.956-1.19-11.75,2.682-12.936,8.641l-10.197,51.237l-16.17-52.49
			c-1.789-5.806-7.943-9.064-13.751-7.274c-3.942,1.215-6.703,4.444-7.513,8.209l-15.96,51.563l-10.166-51.395
			c-1.179-5.96-6.967-9.838-12.925-8.656c-5.96,1.179-9.835,6.966-8.657,12.926l17.146,86.679c0.104,0.525,0.246,1.043,0.426,1.548
			c1.839,5.177,6.749,8.639,12.237,8.639c0.029,0,0.06,0,0.09,0c5.523-0.038,10.428-3.577,12.206-8.808
			c0.032-0.095,0.063-0.19,0.093-0.286l16.263-52.543l16.19,52.554c0.046,0.149,0.095,0.297,0.147,0.444
			c1.839,5.177,6.749,8.639,12.237,8.639c0.029,0,0.059,0,0.088,0c5.523-0.037,10.428-3.576,12.207-8.805
			c0.155-0.456,0.28-0.922,0.375-1.395l17.213-86.491C176.305,164.518,172.437,158.727,166.478,157.541z"/>
		<path style="fill:#33CCCC;" d="M305.816,157.541c-5.956-1.189-11.75,2.684-12.936,8.641l-10.197,51.237l-16.171-52.49
			c-1.79-5.806-7.941-9.064-13.751-7.274c-3.942,1.215-6.703,4.444-7.513,8.209l-15.96,51.563l-10.166-51.395
			c-1.179-5.96-6.966-9.838-12.925-8.656c-5.96,1.179-9.835,6.966-8.657,12.926l17.146,86.679c0.104,0.525,0.246,1.043,0.426,1.548
			c1.839,5.177,6.749,8.639,12.237,8.639c0.029,0,0.06,0,0.09,0c5.523-0.038,10.428-3.577,12.206-8.808
			c0.032-0.095,0.063-0.19,0.093-0.286L256,205.529l16.19,52.555c0.046,0.148,0.095,0.296,0.146,0.441
			c1.838,5.179,6.748,8.642,12.237,8.642c0.028,0,0.058,0,0.087,0c5.523-0.037,10.43-3.575,12.208-8.805
			c0.155-0.456,0.28-0.922,0.374-1.395l17.214-86.491C315.644,164.518,311.774,158.727,305.816,157.541z"/>
		<path style="fill:#33CCCC;" d="M445.153,157.541c-5.965-1.189-11.75,2.684-12.936,8.641l-10.197,51.237l-16.17-52.49
			c-1.789-5.807-7.949-9.059-13.751-7.274c-3.944,1.215-6.706,4.447-7.515,8.214l-15.959,51.559l-10.166-51.395
			c-1.179-5.96-6.969-9.836-12.926-8.656c-5.959,1.179-9.835,6.966-8.656,12.926l17.146,86.679c0.104,0.524,0.246,1.041,0.425,1.545
			c1.838,5.179,6.748,8.642,12.237,8.642c0.028,0,0.058,0,0.087,0c5.523-0.037,10.43-3.575,12.208-8.805
			c0.033-0.097,0.064-0.192,0.094-0.289l16.263-52.543l16.19,52.554c0.046,0.15,0.096,0.299,0.148,0.446
			c1.84,5.176,6.749,8.637,12.236,8.637c0.029,0,0.061,0,0.09,0c5.522-0.038,10.427-3.576,12.205-8.805
			c0.155-0.456,0.28-0.923,0.374-1.395l17.213-86.491C454.98,164.518,451.111,158.727,445.153,157.541z"/>
	</g>
	<g>
		<path d="M501,0H11C4.925,0,0,4.925,0,11v346c0,6.075,4.925,11,11,11h139.008c-3.254,10.429-5.008,21.514-5.008,33
			c0,61.206,49.794,111,111,111c61.206,0,111-49.794,111-111c0-11.486-1.754-22.571-5.008-33H501c6.075,0,11-4.925,11-11V11
			C512,4.925,507.075,0,501,0z M490,22v66H22V22H490z M344.32,390h-44.184c-0.834-23.741-4.355-45.862-10.13-63.189
			c-1.153-3.46-2.358-6.594-3.598-9.458C317.242,328.596,340.164,356.43,344.32,390z M256,490c-0.967,0-7.14-3.784-13.135-21.768
			c-5.071-15.214-8.187-34.878-8.986-56.232h44.241c-0.8,21.354-3.915,41.019-8.986,56.232C263.14,486.216,256.967,490,256,490z
			 M269.135,333.768c5.071,15.214,8.186,34.878,8.986,56.232h-44.241c0.8-21.354,3.915-41.019,8.986-56.232
			C248.86,315.784,255.033,312,256,312C256.967,312,263.14,315.784,269.135,333.768z M211.864,390H167.68
			c4.154-33.552,27.053-61.375,57.863-72.63C217.263,336.456,212.816,363.209,211.864,390z M167.68,412h44.184
			c0.834,23.741,4.355,45.862,10.131,63.189c1.153,3.46,2.358,6.594,3.598,9.458C194.758,473.404,171.836,445.57,167.68,412z
			 M286.457,484.63c8.279-19.086,12.726-45.839,13.678-72.63h44.185C340.166,445.552,317.267,473.375,286.457,484.63z M352.389,346
			c-19.149-33.428-55.181-56-96.389-56c-41.207,0-77.24,22.572-96.389,56H22V110h468v236H352.389z"/>
		<path d="M67,66c7.591,0.221,13.273-8.282,10.16-15.21c-3.525-8.918-16.777-8.964-20.32,0C53.731,57.723,59.406,66.219,67,66z"/>
		<path d="M119,66c7.592,0.221,13.266-8.279,10.16-15.21c-3.53-8.966-16.797-8.914-20.32,0C105.728,57.72,111.411,66.218,119,66z"/>
		<path d="M171,66c7.595,0.22,13.268-8.278,10.16-15.21c-3.557-8.952-16.765-8.952-20.32,0C157.726,57.718,163.41,66.22,171,66z"/>
		<path d="M256,66h189c6.075,0,11-4.925,11-11s-4.925-11-11-11H256c-6.075,0-11,4.925-11,11S249.925,66,256,66z"/>
	</g>
</g>
<g>
</g>
<g>
</g>
<g>
</g>
<g>
</g>
<g>
</g>
<g>
</g>
<g>
</g>
<g>
</g>
<g>
</g>
<g>
</g>
<g>
</g>
<g>
</g>
<g>
</g>
<g>
</g>
<g>
</g>
</svg>
