<?xml version="1.0" encoding="UTF-8"?>
<!-- Generator: Adobe Illustrator 26.0.3, SVG Export Plug-In . SVG Version: 6.00 Build 0)  -->
<svg xmlns="http://www.w3.org/2000/svg" xmlns:xlink="http://www.w3.org/1999/xlink" version="1.1" id="Capa_1" x="0px" y="0px" viewBox="0 0 512 512" style="enable-background:new 0 0 512 512;" xml:space="preserve" width="512" height="512">
<g id="Maximize_1_">
	<path style="fill:#33CCCC;" d="M438.988,82.996H73.012c-6.075,0-11-4.925-11-11c0-6.075,4.925-11,11-11h365.976   c6.075,0,11,4.925,11,11C449.988,78.071,445.063,82.996,438.988,82.996z"/>
	<path style="fill:#33CCCC;" d="M438.988,451.004H73.012c-6.075,0-11-4.925-11-11s4.925-11,11-11h365.976c6.075,0,11,4.925,11,11   S445.063,451.004,438.988,451.004z"/>
	<path style="fill:#33CCCC;" d="M234.308,232.074c1.427-1.871,2.183-4.225,2.194-6.572v-60.996c0-6.075-4.925-11-11-11   c-6.075,0-11,4.925-11,11v34.439l-42.217-42.217c-4.296-4.296-11.261-4.296-15.557,0c-4.295,4.296-4.295,11.261,0,15.557   l42.217,42.217h-34.439c-6.075,0-11,4.925-11,11c0,6.075,4.925,11,11,11h60.996C228.91,236.504,232.301,234.843,234.308,232.074z"/>
	<path style="fill:#33CCCC;" d="M347.494,214.502h-34.439l42.217-42.217c4.295-4.296,4.295-11.261,0-15.557   c-4.296-4.296-11.261-4.296-15.557,0l-42.217,42.217v-34.439c0-6.075-4.925-11-11-11c-6.075,0-11,4.925-11,11v60.996   c-0.107,5.904,5.096,11.108,11,11h60.996c6.075,0,11-4.925,11-11C358.494,219.427,353.569,214.502,347.494,214.502z"/>
	<path style="fill:#33CCCC;" d="M236.5,286.453c0.089-5.889-5.117-11.066-11.003-10.955h-60.991c-6.075,0-11,4.925-11,11   c0,6.075,4.925,11,11,11h34.439l-42.217,42.217c-4.295,4.296-4.295,11.261,0,15.557c2.148,2.148,4.963,3.222,7.778,3.222   c2.815,0,5.63-1.074,7.778-3.222l42.217-42.217v34.439c0,6.075,4.925,11,11,11c6.075,0,11-4.925,11-11v-60.996   C236.502,286.483,236.5,286.468,236.5,286.453z"/>
	<path style="fill:#33CCCC;" d="M313.055,297.498h34.439c6.075,0,11-4.925,11-11c0-6.075-4.925-11-11-11h-60.991   c-5.906-0.111-11.113,5.095-11.005,11v60.996c0,6.075,4.925,11,11,11c6.075,0,11-4.925,11-11v-34.439l42.217,42.217   c2.148,2.148,4.963,3.222,7.778,3.222c2.815,0,5.63-1.074,7.778-3.222c4.295-4.296,4.295-11.261,0-15.557L313.055,297.498z"/>
	<path d="M408.49,512H103.51c-22.882,0-41.498-18.616-41.498-41.498V41.498C62.012,18.616,80.628,0,103.51,0H408.49   c22.882,0,41.498,18.616,41.498,41.498v429.004C449.988,493.384,431.372,512,408.49,512z M103.51,22   c-10.751,0-19.498,8.747-19.498,19.498v429.004c0,10.751,8.747,19.498,19.498,19.498H408.49c10.751,0,19.498-8.747,19.498-19.498   V41.498c0-10.751-8.747-19.498-19.498-19.498H103.51z"/>
</g>















</svg>
