<?xml version="1.0" encoding="UTF-8" standalone="no"?>
<!DOCTYPE svg PUBLIC "-//W3C//DTD SVG 1.1//EN" "http://www.w3.org/Graphics/SVG/1.1/DTD/svg11.dtd">
<svg width="100%" height="100%" viewBox="0 0 2717 2717" version="1.1" xmlns="http://www.w3.org/2000/svg" xmlns:xlink="http://www.w3.org/1999/xlink" xml:space="preserve" xmlns:serif="http://www.serif.com/" style="fill-rule:evenodd;clip-rule:evenodd;stroke-linejoin:round;stroke-miterlimit:2;">
    <g>
        <path d="M2620.85,1313.83L2466.83,1286.15C2462.23,1210.29 2449.95,1136.47 2429.99,1064.19L2566.1,987.305C2532.33,878.122 2484.74,775.603 2424.88,681.285L2278.53,734.082C2236.58,672.57 2189.5,615.672 2136.8,563.387L2215.6,428.574C2133.73,352.197 2040.6,286.585 1939.8,234.3L1839,354.248C1774.01,322.979 1705.45,297.862 1634.32,279.921L1635.86,123.579C1582.13,111.277 1526.87,103.075 1470.58,97.949C1412.76,92.823 1354.94,91.798 1298.66,93.848L1271.03,248.14C1199.39,253.266 1129.8,266.594 1061.75,285.047L984.994,149.209C875.494,182.528 772.133,231.737 676.96,292.736L730.175,439.851C672.867,479.321 619.651,524.43 570.53,573.639L435.957,494.187C358.18,577.227 291.661,670.52 238.446,772.527L357.669,873.509C328.503,935.02 304.454,999.095 286.033,1066.76L129.969,1065.73C116.665,1123.66 106.432,1184.65 100.803,1246.17C96.198,1299.99 94.663,1352.79 96.71,1405.58L250.215,1433.27C254.82,1502.98 265.566,1570.64 282.963,1636.77L146.855,1713.65C178.579,1824.38 225.654,1928.95 285.521,2025.83L431.863,1972.52C470.239,2030.44 513.733,2084.78 562.343,2135.01L482.52,2270.34C563.878,2348.76 655.981,2416.94 757.295,2471.79L857.585,2352.35C920.01,2383.62 986.018,2410.28 1055.1,2429.75L1054.07,2586.61C1116.5,2601.99 1180.97,2613.26 1246.98,2619.93C1295.08,2623.51 1343.17,2625.57 1390.25,2624.54L1417.88,2471.27C1491.05,2467.17 1563.2,2456.92 1632.79,2438.98L1710.05,2575.33C1819.55,2543.55 1923.42,2497.42 2018.6,2438.98L1965.89,2292.38C2028.32,2251.37 2086.14,2205.24 2138.84,2152.95L2273.93,2232.4C2351.19,2151.41 2417.71,2059.66 2471.44,1959.7L2351.7,1857.69C2384.96,1791.06 2412.08,1720.83 2431.53,1647.53L2587.59,1648.56C2601.41,1591.14 2611.13,1531.17 2616.24,1470.17C2620.85,1417.89 2622.39,1365.6 2620.85,1313.83" style="fill:none;fill-rule:nonzero;"/>
        <path d="M1357.5,2639.41C1323.22,2639.41 1285.86,2637.87 1244.42,2634.28C1177.9,2628.13 1112.4,2616.34 1048.95,2600.97L1036.67,2597.89L1037.18,2440.52C977.318,2422.58 917.451,2399 860.142,2370.81L759.34,2490.24L748.083,2484.09C646.258,2428.73 553.131,2360.04 470.238,2280.08L461.028,2271.37L540.851,2135.53C498.381,2090.42 458.981,2041.72 423.675,1989.95L276.822,2043.26L270.17,2032.5C208.768,1932.54 161.693,1826.43 129.968,1716.74L126.386,1704.43L263.006,1627.03C248.679,1568.59 238.957,1507.6 233.84,1445.06L80.335,1417.38L79.823,1404.56C77.776,1351.77 79.311,1297.43 83.916,1243.61C89.545,1182.61 99.267,1121.1 113.594,1060.61L116.664,1048.31L273.24,1049.85C289.614,990.897 311.616,932.974 337.2,877.101L217.978,776.119L224.118,764.842C278.357,661.297 345.899,566.467 424.187,482.914L432.885,473.687L567.97,553.139C612.998,508.543 661.097,468.561 710.73,433.192L657.003,286.076L667.749,279.412C766.504,216.363 871.399,167.154 979.876,134.347L992.157,130.759L1069.42,266.598C1132.87,250.194 1195.81,238.917 1257.72,233.279L1285.35,78.474L1298.14,77.962C1356.48,75.399 1415.32,76.937 1472.12,82.063C1528.91,87.189 1585.2,95.903 1639.44,108.205L1651.72,111.281L1650.69,267.623C1714.66,284.538 1776.57,307.093 1834.9,334.773L1935.7,214.313L1946.96,220.464C2048.27,273.261 2142.42,339.386 2226.34,417.301L2235.55,426.015L2156.75,561.341C2203.32,607.987 2246.3,659.76 2284.67,715.12L2431.53,662.323L2438.18,673.087C2499.07,768.43 2547.17,873 2581.45,983.208L2585.03,995.511L2448.92,1071.89C2466.32,1139.04 2477.58,1206.19 2482.18,1272.31L2636.71,1299.99L2637.22,1312.81C2638.76,1369.19 2636.71,1420.97 2632.11,1471.71C2626.48,1534.76 2616.76,1595.25 2602.94,1652.15L2599.87,1664.45L2443.3,1663.42C2425.39,1728.01 2400.83,1791.57 2371.15,1853.6L2490.37,1954.58L2484.23,1965.86C2429.99,2066.33 2362.96,2159.11 2284.16,2242.15L2275.46,2251.37L2139.87,2171.92C2091.77,2218.05 2039.58,2260.6 1983.8,2297.51L2037.02,2444.62L2025.76,2451.29C1927.52,2511.26 1822.62,2557.91 1713.12,2589.69L1700.84,2593.28L1623.06,2456.41C1561.66,2471.28 1496.68,2481.02 1429.65,2485.63L1402.02,2639.41L1389.22,2639.92C1378.99,2639.41 1368.25,2639.41 1357.5,2639.41M1068.4,2573.28C1126.73,2587.12 1186.6,2597.38 1246.98,2603.01C1294.56,2606.6 1337.03,2608.14 1375.41,2607.63L1403.04,2454.88L1415.83,2454.36C1490.03,2450.26 1561.15,2439.5 1627.67,2422.58L1639.44,2419.51L1716.7,2555.34C1814.95,2525.61 1909.61,2484.09 1998.64,2430.78L1945.94,2284.69L1956.68,2278.03C2017.57,2238.05 2074.88,2191.91 2127.07,2140.65L2135.77,2131.94L2270.35,2210.88C2340.45,2135.53 2401.34,2051.97 2450.97,1962.27L2332.77,1862.31L2338.4,1851.04C2371.66,1783.88 2398.27,1714.17 2417.2,1643.95L2420.27,1632.16L2575.82,1633.18C2587.59,1581.41 2596.29,1526.56 2600.89,1469.66C2604.99,1424.04 2607.03,1377.4 2606.01,1327.16L2452.51,1299.48L2451.99,1286.67C2447.9,1214.39 2435.62,1141.09 2416.18,1068.3L2413.11,1056.51L2548.7,979.62C2516.98,880.689 2473.48,786.884 2419.76,700.255L2273.93,752.54L2267.28,742.288C2225.32,680.776 2178.24,624.39 2127.07,574.156L2118.38,565.442L2196.66,431.141C2120.42,361.941 2035.99,301.967 1944.91,253.783L1844.62,373.218L1833.37,367.579C1769.92,336.823 1702.38,312.219 1631.76,294.278L1619.99,291.202L1621.02,135.373C1572.41,124.608 1521.75,116.919 1470.58,112.818C1418.9,108.205 1366.2,106.667 1313.5,108.205L1285.86,261.984L1273.58,263.009C1206.04,268.135 1136.96,280.438 1067.37,299.404L1055.61,302.479L978.853,167.154C881.633,197.91 786.971,241.993 697.426,298.379L750.642,444.981L740.408,452.158C685.658,490.09 632.442,534.173 582.809,583.895L574.11,592.609L440.049,513.157C369.948,589.021 309.569,674.625 259.936,767.405L378.647,867.874L373.53,879.151C344.364,940.15 320.315,1004.23 302.917,1069.33L299.847,1081.11L141.737,1080.6C129.456,1135.45 120.758,1191.32 115.641,1246.68C111.547,1294.87 110.012,1343.56 111.036,1391.24L264.029,1418.4L265.053,1430.71C269.658,1499.91 280.915,1567.57 297.289,1631.64L300.359,1643.43L164.763,1720.32C194.44,1819.25 236.91,1915.11 291.149,2005.33L437.491,1952.02L444.142,1962.27C482.007,2019.68 525.5,2073.5 572.575,2122.71L580.762,2131.43L501.451,2266.24C576.669,2337.49 661.097,2399.51 752.177,2450.26L851.955,2331.34L863.212,2336.98C926.149,2368.76 991.645,2394.39 1057.65,2413.35L1069.42,2416.94L1068.4,2573.28Z" style="fill:none;fill-rule:nonzero;stroke:rgb(23,37,84);stroke-width:41.67px;"/>
        <ellipse cx="1358.62" cy="1358.1" rx="909.192" ry="910.813" style="fill:none;stroke:rgb(23,37,84);stroke-width:83.33px;stroke-linecap:round;stroke-miterlimit:1.5;"/>
        <g transform="matrix(4.16667,0,0,4.16667,-291.882,-86.7745)">
            <g transform="matrix(1,0,0,1,291.083,240.39)">
                <text x="0px" y="0px" style="font-family:'Impact', sans-serif;font-stretch:condensed;font-size:80px;fill:rgb(23,37,84);">HECHO</text>
            </g>
            <g transform="matrix(1,0,0,1,357.841,332.39)">
                <text x="0px" y="0px" style="font-family:'Impact', sans-serif;font-stretch:condensed;font-size:80px;fill:rgb(23,37,84);">EN</text>
            </g>
            <g transform="matrix(1,0,0,1,275.712,424.39)">
                <text x="0px" y="0px" style="font-family:'Impact', sans-serif;font-stretch:condensed;font-size:80px;fill:rgb(23,37,84);">PUERTO</text>
            </g>
            <g transform="matrix(1,0,0,1,319.051,516.39)">
                <text x="0px" y="0px" style="font-family:'Impact', sans-serif;font-stretch:condensed;font-size:80px;fill:rgb(23,37,84);">RICO</text>
            </g>
        </g>
    </g>
</svg>
